<svg width="29" height="31" viewBox="0 0 29 31" fill="none" xmlns="http://www.w3.org/2000/svg">
<g clip-path="url(#clip0_4_83)">
<path d="M10.0677 24.0363C10.0677 24.1573 9.93783 24.254 9.77407 24.254C9.58772 24.2722 9.45784 24.1754 9.45784 24.0363C9.45784 23.9153 9.58772 23.8185 9.75148 23.8185C9.92089 23.8004 10.0677 23.8972 10.0677 24.0363ZM8.31152 23.7641C8.27199 23.8851 8.38493 24.0242 8.55434 24.0605C8.70116 24.121 8.87056 24.0605 8.90445 23.9395C8.93833 23.8185 8.83104 23.6794 8.66163 23.625C8.51481 23.5827 8.35105 23.6431 8.31152 23.7641ZM10.8075 23.6613C10.6437 23.7036 10.5308 23.8185 10.5477 23.9577C10.5646 24.0786 10.7115 24.1573 10.8809 24.1149C11.0446 24.0726 11.1576 23.9577 11.1406 23.8367C11.1237 23.7218 10.9712 23.6431 10.8075 23.6613ZM14.5231 0.483871C6.69085 0.483871 0.699463 6.85282 0.699463 15.2419C0.699463 21.9496 4.64102 27.6895 10.271 29.7097C10.9938 29.8488 11.2479 29.371 11.2479 28.9778C11.2479 28.6028 11.231 26.5343 11.231 25.2641C11.231 25.2641 7.27813 26.1714 6.44803 23.4617C6.44803 23.4617 5.80428 21.7016 4.87819 21.248C4.87819 21.248 3.58504 20.2984 4.96854 20.3165C4.96854 20.3165 6.37462 20.4375 7.14825 21.877C8.38493 24.2117 10.4574 23.5403 11.2649 23.1411C11.3947 22.1734 11.7618 21.502 12.1684 21.1028C9.01174 20.7278 5.82687 20.2379 5.82687 14.4194C5.82687 12.756 6.25604 11.9214 7.15955 10.8569C7.01273 10.4637 6.53274 8.84274 7.30637 6.75C8.48657 6.35685 11.2027 8.38307 11.2027 8.38307C12.3321 8.04436 13.5462 7.86895 14.749 7.86895C15.9518 7.86895 17.1659 8.04436 18.2953 8.38307C18.2953 8.38307 21.0115 6.35081 22.1917 6.75C22.9653 8.84879 22.4853 10.4637 22.3385 10.8569C23.242 11.9274 23.7954 12.7621 23.7954 14.4194C23.7954 20.256 20.4694 20.7218 17.3127 21.1028C17.8322 21.5806 18.2727 22.4879 18.2727 23.9093C18.2727 25.9476 18.2558 28.4698 18.2558 28.9657C18.2558 29.3589 18.5155 29.8367 19.2327 29.6976C24.8796 27.6895 28.7082 21.9496 28.7082 15.2419C28.7082 6.85282 22.3554 0.483871 14.5231 0.483871ZM6.18827 21.3448C6.11486 21.4052 6.13181 21.5444 6.2278 21.6593C6.31815 21.756 6.44803 21.7984 6.52144 21.7198C6.59485 21.6593 6.57791 21.5202 6.48191 21.4052C6.39156 21.3085 6.26168 21.2661 6.18827 21.3448ZM5.57841 20.8548C5.53888 20.9335 5.59535 21.0302 5.70829 21.0907C5.79864 21.1512 5.91158 21.1331 5.9511 21.0484C5.99063 20.9698 5.93416 20.873 5.82122 20.8125C5.70829 20.7762 5.61794 20.7944 5.57841 20.8548ZM7.40801 23.0081C7.31766 23.0867 7.35154 23.2681 7.48142 23.3831C7.6113 23.5222 7.77506 23.5403 7.84847 23.4435C7.92188 23.3649 7.888 23.1835 7.77506 23.0685C7.65083 22.9294 7.48142 22.9113 7.40801 23.0081ZM6.76426 22.119C6.67391 22.1794 6.67391 22.3367 6.76426 22.4758C6.85461 22.6149 7.00708 22.6754 7.08049 22.6149C7.17084 22.5363 7.17084 22.379 7.08049 22.2399C7.00143 22.1008 6.85461 22.0403 6.76426 22.119Z" fill="#FFE4E1"/>
</g>
<defs>
<clipPath id="clip0_4_83">
<rect width="28.0088" height="30.9677" fill="white" transform="translate(0.699463)"/>
</clipPath>
</defs>
</svg>
