<svg width="29" height="31" viewBox="0 0 29 31" fill="none" xmlns="http://www.w3.org/2000/svg">
<path d="M14.027 0.486305C6.29253 0.486305 0.022583 7.23581 0.022583 15.5618C0.022583 23.8878 6.29253 30.6373 14.027 30.6373C21.7614 30.6373 28.0313 23.8878 28.0313 15.5618C28.0313 7.23581 21.7614 0.486305 14.027 0.486305ZM20.5182 10.7389C20.3075 13.1227 19.3955 18.9075 18.9314 21.5774C18.7351 22.7071 18.3486 23.0859 17.9744 23.1229C17.1612 23.2036 16.5436 22.5444 15.7559 21.9886C14.5233 21.1188 13.827 20.5774 12.6305 19.7286C11.2479 18.7478 12.1442 18.2089 12.9322 17.3275C13.1384 17.0969 16.7217 13.5884 16.791 13.2701C16.7997 13.2303 16.808 13.0817 16.7259 13.0036C16.6437 12.9256 16.5231 12.952 16.4359 12.9732C16.3123 13.0035 14.3432 14.4045 10.5287 17.1763C9.96989 17.5894 9.46366 17.7907 9.01006 17.7801C8.51003 17.7685 7.54818 17.4758 6.83311 17.2256C5.95609 16.9187 5.25903 16.7565 5.31974 16.2353C5.35136 15.9637 5.69865 15.6861 6.3616 15.4025C10.4442 13.4877 13.1665 12.2254 14.5286 11.6154C18.4178 9.87396 19.2259 9.57148 19.7527 9.56139C19.8685 9.55932 20.1276 9.5902 20.2953 9.73676C20.4069 9.84116 20.4781 9.98686 20.4947 10.145C20.5231 10.3414 20.531 10.5406 20.5182 10.7389Z" fill="#FFE4E1"/>
</svg>
