<svg width="29" height="31" viewBox="0 0 29 31" fill="none" xmlns="http://www.w3.org/2000/svg">
<g clip-path="url(#clip0_4_79)">
<path d="M2.31449 3.0832C0.345703 5.14262 0.345703 8.45762 0.345703 15.087V16.2589C0.345703 22.8882 0.345703 26.2032 2.31449 28.2626C4.28326 30.3221 7.45236 30.3221 13.7899 30.3221H14.9103C21.2478 30.3221 24.4169 30.3221 26.3857 28.2626C28.3545 26.2032 28.3545 22.8882 28.3545 16.2589V15.087C28.3545 8.45762 28.3545 5.14262 26.3857 3.0832C24.4169 1.02377 21.2478 1.02377 14.9103 1.02377H13.7899C7.45236 1.02377 4.28326 1.02377 2.31449 3.0832ZM5.07218 9.93536H8.26987C8.3749 15.5264 10.7323 17.8947 12.5995 18.383V9.93536H15.6105V14.7573C17.4544 14.5498 19.3917 12.3525 20.0452 9.93536H23.0561C22.8098 11.1889 22.3188 12.3757 21.614 13.4219C20.9092 14.4679 20.0057 15.3506 18.9598 16.0148C20.1275 16.6211 21.1589 17.4799 21.9857 18.5341C22.8125 19.5885 23.416 20.8144 23.7563 22.1308H20.442C20.1366 20.9873 19.5151 19.9637 18.6555 19.1883C17.796 18.413 16.7366 17.9205 15.6105 17.7727V22.1308H15.2487C8.86505 22.1308 5.2239 17.5529 5.07218 9.93536Z" fill="#FFE4E1"/>
</g>
<defs>
<clipPath id="clip0_4_79">
<rect width="28.0088" height="31" fill="white" transform="translate(0.345703)"/>
</clipPath>
</defs>
</svg>
